<?xml version="1.0" encoding="UTF-8" standalone="no"?>
<!DOCTYPE svg PUBLIC "-//W3C//DTD SVG 1.1//EN" "http://www.w3.org/Graphics/SVG/1.1/DTD/svg11.dtd">
<svg width="100%" height="100%" viewBox="0 0 150 150" version="1.1" xmlns="http://www.w3.org/2000/svg" xmlns:xlink="http://www.w3.org/1999/xlink" xml:space="preserve" xmlns:serif="http://www.serif.com/" style="fill-rule:evenodd;clip-rule:evenodd;stroke-linejoin:round;stroke-miterlimit:1.41421;">
    <g transform="matrix(10.0378,0,0,10.0378,-31.7623,126.106)">
        <path d="M17.954,-4.333C17.954,-3.581 17.883,-2.919 17.741,-2.35C17.524,-1.455 17.168,-1.007 16.673,-1.007C16.544,-1.007 16.262,-1.153 15.828,-1.444C15.299,-1.804 14.289,-2.102 12.797,-2.34C11.563,-2.543 10.481,-2.645 9.552,-2.645C9.301,-2.645 9.175,-2.438 9.175,-2.024C9.175,-1.882 9.23,-1.68 9.338,-1.419C9.447,-1.158 9.501,-0.953 9.501,-0.804C9.501,-0.654 9.587,-0.488 9.76,-0.305C9.933,-0.122 10.02,0.024 10.02,0.132C10.02,0.159 10.011,0.2 9.994,0.254C9.977,0.309 9.969,0.349 9.969,0.376C9.969,0.471 10.049,0.607 10.208,0.783C10.367,0.96 10.447,1.112 10.447,1.241C10.447,1.302 10.422,1.38 10.371,1.475C10.32,1.57 10.294,1.645 10.294,1.699C10.294,1.78 10.337,1.873 10.422,1.979C10.506,2.084 10.549,2.157 10.549,2.197C10.549,2.319 10.386,2.38 10.06,2.38C9.342,2.38 8.836,2.17 8.545,1.75C8.368,1.492 8.196,0.953 8.026,0.132C7.714,-1.4 7.175,-2.167 6.409,-2.167C6.375,-2.167 6.331,-2.162 6.276,-2.151C6.222,-2.141 6.181,-2.136 6.154,-2.136C5.286,-2.136 4.852,-2.93 4.852,-4.517C4.852,-5.425 5.296,-6.08 6.185,-6.48C6.646,-6.649 7.334,-6.917 8.25,-7.283C9.213,-7.69 10.267,-8.314 11.413,-9.155C12.492,-9.935 13.248,-10.603 13.682,-11.159C13.865,-12.095 14.235,-12.563 14.791,-12.563C15.455,-12.563 16.096,-11.83 16.713,-10.366C17.134,-9.376 17.449,-8.335 17.659,-7.243C17.856,-6.259 17.954,-5.29 17.954,-4.333ZM5.442,-2.248C4.71,-2.296 4.191,-2.391 3.886,-2.533C3.404,-2.77 3.164,-3.201 3.164,-3.825C3.164,-4.442 3.36,-4.9 3.754,-5.198C3.767,-5.212 4.222,-5.452 5.117,-5.92C4.791,-5.561 4.628,-5.012 4.628,-4.272C4.628,-3.377 4.9,-2.702 5.442,-2.248ZM15.36,-5.015C15.36,-5.734 15.238,-6.409 14.994,-7.039C14.716,-7.745 14.34,-8.24 13.865,-8.524C14.129,-6.11 14.53,-4.3 15.065,-3.092C15.262,-3.689 15.36,-4.33 15.36,-5.015ZM15.35,-2.055C14.747,-2.964 14.268,-4.113 13.916,-5.503C13.59,-6.785 13.428,-8.023 13.428,-9.216L13.57,-10.376C13.109,-9.786 12.481,-9.233 11.688,-8.718C10.976,-8.29 10.261,-7.86 9.542,-7.426C8.701,-6.904 8.28,-6.297 8.28,-5.605C8.28,-5.001 8.389,-4.479 8.606,-4.038C8.877,-3.496 9.277,-3.181 9.806,-3.092C9.847,-3.086 10.223,-3.069 10.935,-3.042C12.617,-2.974 14.089,-2.645 15.35,-2.055ZM4.679,-2.675C4.415,-3.415 4.283,-3.994 4.283,-4.415C4.283,-4.706 4.32,-4.954 4.394,-5.157L4.171,-5.096C4.083,-4.784 4.038,-4.452 4.038,-4.099C4.038,-3.808 4.157,-3.333 4.394,-2.675L4.679,-2.675ZM4.12,-2.736C3.876,-3.32 3.754,-3.737 3.754,-3.988C3.754,-4.238 3.781,-4.55 3.835,-4.923L3.55,-4.73C3.503,-4.459 3.479,-4.205 3.479,-3.967C3.479,-3.655 3.611,-3.276 3.876,-2.828L4.12,-2.736Z" style="fill:rgb(0,136,204);fill-rule:nonzero;"/>
    </g>
</svg>
