<?xml version="1.0" encoding="UTF-8" standalone="no"?>
<!DOCTYPE svg PUBLIC "-//W3C//DTD SVG 1.1//EN" "http://www.w3.org/Graphics/SVG/1.1/DTD/svg11.dtd">
<svg width="100%" height="100%" viewBox="0 0 13 20" version="1.1" xmlns="http://www.w3.org/2000/svg" xmlns:xlink="http://www.w3.org/1999/xlink" xml:space="preserve" xmlns:serif="http://www.serif.com/" style="fill-rule:evenodd;clip-rule:evenodd;stroke-linejoin:round;stroke-miterlimit:1.41421;">
    <g transform="matrix(0.0187564,0,0,0.0201005,-12.2569,-13.0653)">
        <path d="M1000,650C1191.23,650 1341.68,806.889 1346.48,1000C1353.11,1266.83 1000,1645 1000,1645C1000,1645 648.813,1283.32 653.522,1000C656.732,806.856 808.774,650 1000,650ZM1000,850C1082.79,850 1150,917.213 1150,1000C1150,1082.79 1082.79,1150 1000,1150C917.213,1150 850,1082.79 850,1000C850,917.213 917.213,850 1000,850Z"/>
    </g>
</svg>
